<svg version="1.1" id="Réteg_1" xmlns="http://www.w3.org/2000/svg" xmlns:xlink="http://www.w3.org/1999/xlink" x="0px" y="0px" viewBox="0 0 201 99.9" style="enable-background:new 0 0 201 99.9;" xml:space="preserve">
<style type="text/css">
	.st0{fill:#CF000F;}
</style>
<g>
	<path class="st0" d="M17.6,98.2V26.1C13.1,28.2,4.9,29.9,0,30.3V14.6c9.2-1.7,18.6-6.9,24.2-12.9h14.9v96.5H17.6z"/>
	<path class="st0" d="M100.4,65.8c0-9.2-3.4-17.4-15.2-17.4c-9.5,0-15,5.5-15,16.6c0,7.8,3.8,18.2,15.1,18.2   C95.6,83.3,100.4,75.6,100.4,65.8 M98.4,25.2c-1.2-4.7-4-9.3-12.4-9.3C73,15.9,69.6,28,69,41c4.1-5,11-8.9,22-8.9   c17.8,0,30.5,13,30.5,32c0,20.6-13.3,35.9-35.8,35.9c-28.3,0-37.6-21.5-37.6-48.8C48.1,26,57-0.1,86.9-0.1   c21.2,0,31.1,13.1,32,25.2L98.4,25.2L98.4,25.2z"/>
	<path class="st0" d="M150.4,28c0,6.5,4.7,10.9,13.6,10.9c8.7,0,13.4-3.3,13.4-10.8c0-7.3-4.9-11.8-13.5-11.8   C155,16.2,150.4,20.3,150.4,28 M179.8,69.5c0-9.5-6.7-14-16.1-14c-10.6,0-16.1,5.7-16.1,13.8c0,8.6,6.5,14.3,16.4,14.3   C173.2,83.7,179.8,79.4,179.8,69.5 M126.4,70.5c0-12.4,8.7-19.9,15.9-23.1c-7.5-4.6-12.1-10.4-12.1-20.2c0-16.3,12.1-27.2,34-27.2   c20,0,33.2,10.4,33.2,26.9c0,11.1-5.8,16.6-12.4,19.4c7,2.6,15.9,10.7,15.9,23.4c0,19.9-16.1,30.2-38.2,30.2   C142.8,100,126.4,89.6,126.4,70.5"/>
</g>
</svg>