<?xml version="1.0" encoding="UTF-8" standalone="no"?>
<!-- Generator: Adobe Illustrator 22.0.1, SVG Export Plug-In . SVG Version: 6.00 Build 0)  -->

<svg
   xmlns:dc="http://purl.org/dc/elements/1.1/"
   xmlns:cc="http://creativecommons.org/ns#"
   xmlns:rdf="http://www.w3.org/1999/02/22-rdf-syntax-ns#"
   xmlns:svg="http://www.w3.org/2000/svg"
   xmlns="http://www.w3.org/2000/svg"
   xmlns:sodipodi="http://sodipodi.sourceforge.net/DTD/sodipodi-0.dtd"
   xmlns:inkscape="http://www.inkscape.org/namespaces/inkscape"
   version="1.1"
   id="Layer_1"
   x="0px"
   y="0px"
   viewBox="0 0 230 90"
   style="enable-background:new 0 0 115.6 45.6;"
   xml:space="preserve"
   sodipodi:docname="atlatszo.svg"
   inkscape:version="0.92.5 (2060ec1f9f, 2020-04-08)"><metadata
   id="metadata33"><rdf:RDF><cc:Work
       rdf:about=""><dc:format>image/svg+xml</dc:format><dc:type
         rdf:resource="http://purl.org/dc/dcmitype/StillImage" /></cc:Work></rdf:RDF></metadata><defs
   id="defs31" /><sodipodi:namedview
   pagecolor="#ffffff"
   bordercolor="#666666"
   borderopacity="1"
   objecttolerance="10"
   gridtolerance="10"
   guidetolerance="10"
   inkscape:pageopacity="0"
   inkscape:pageshadow="2"
   inkscape:window-width="640"
   inkscape:window-height="480"
   id="namedview29"
   showgrid="false"
   inkscape:zoom="1.5086957"
   inkscape:cx="132.11992"
   inkscape:cy="54.264762"
   inkscape:window-x="72"
   inkscape:window-y="27"
   inkscape:window-maximized="0"
   inkscape:current-layer="Layer_1" />
<style
   type="text/css"
   id="style2">
	.st0{fill:#FF2932;}
</style>
<g
   id="g26"
   transform="scale(1.9755854)">
	<g
   id="g6">
		<path
   class="st0"
   d="m 107.9,5.4 2.3,26 -102.5,9 -2.3,-26 102.5,-9 M 112.4,0 0,9.8 3.1,45.6 115.5,35.8 112.4,0 Z"
   id="path4"
   inkscape:connector-curvature="0"
   style="fill:#ff2932" />
	</g>
	<g
   id="g24">
		<path
   class="st0"
   d="m 16.5,20.1 4.4,-0.4 5.9,11.9 -4.6,0.4 -0.8,-1.8 -3.9,0.3 -0.5,1.9 -4.4,0.4 z m 2.5,4.1 -0.7,3.1 2,-0.2 z"
   id="path8"
   inkscape:connector-curvature="0"
   style="fill:#ff2932" />
		<path
   class="st0"
   d="m 32.4,31.2 -4.1,0.4 -0.8,-8.8 -3,0.3 -0.3,-3.5 10.2,-0.9 0.3,3.5 -3,0.3 z"
   id="path10"
   inkscape:connector-curvature="0"
   style="fill:#ff2932" />
		<path
   class="st0"
   d="m 35.4,18.5 4.2,-0.4 0.8,8.8 4.5,-0.4 0.3,3.6 -8.7,0.8 z"
   id="path12"
   inkscape:connector-curvature="0"
   style="fill:#ff2932" />
		<path
   class="st0"
   d="m 47.5,17.4 4.4,-0.4 5.9,11.9 -4.5,0.4 -0.8,-1.8 -3.9,0.3 -0.5,1.9 -4.4,0.4 z m 2.6,4.1 -0.7,3.1 2,-0.2 z"
   id="path14"
   inkscape:connector-curvature="0"
   style="fill:#ff2932" />
		<path
   class="st0"
   d="m 63.5,28.4 -4.1,0.4 -0.8,-8.8 -3,0.3 -0.3,-3.5 10.2,-0.9 0.3,3.5 -3,0.3 z"
   id="path16"
   inkscape:connector-curvature="0"
   style="fill:#ff2932" />
		<path
   class="st0"
   d="m 71.9,28.1 c -0.5,0 -1,0 -1.5,0 -0.5,0 -1,-0.1 -1.4,-0.3 -0.5,-0.1 -0.9,-0.3 -1.3,-0.5 -0.4,-0.2 -0.8,-0.4 -1.1,-0.7 l 2.3,-3 c 0.3,0.3 0.7,0.5 1.2,0.7 0.5,0.2 1,0.3 1.5,0.2 0.2,0 0.4,-0.1 0.6,-0.2 0.2,-0.1 0.3,-0.3 0.2,-0.5 0,-0.1 -0.1,-0.2 -0.1,-0.3 C 72.2,23.4 72.1,23.4 71.9,23.3 71.7,23.2 71.5,23.2 71.2,23.1 70.9,23 70.5,22.9 70.1,22.8 69.7,22.7 69.3,22.6 68.9,22.4 68.5,22.2 68.1,22 67.8,21.8 67.5,21.5 67.2,21.2 67,20.9 c -0.2,-0.4 -0.3,-0.8 -0.4,-1.4 -0.1,-0.8 0,-1.4 0.3,-2 0.3,-0.6 0.6,-1 1.1,-1.4 0.5,-0.4 1,-0.7 1.6,-0.9 0.6,-0.2 1.2,-0.3 1.8,-0.4 0.8,-0.1 1.7,0 2.5,0.3 0.9,0.2 1.6,0.6 2.3,1.2 l -2.3,2.9 c -0.3,-0.3 -0.7,-0.6 -1.1,-0.7 -0.4,-0.1 -0.8,-0.2 -1.1,-0.2 -0.3,0 -0.5,0.1 -0.7,0.2 -0.2,0.1 -0.3,0.3 -0.2,0.5 0,0.2 0.1,0.3 0.3,0.4 0.2,0.1 0.5,0.2 1,0.3 0.5,0.1 0.9,0.2 1.4,0.4 0.5,0.1 1,0.3 1.4,0.6 0.4,0.3 0.8,0.6 1.1,1 0.3,0.4 0.5,0.9 0.5,1.6 0.1,0.7 0,1.4 -0.3,2 -0.2,0.6 -0.6,1.1 -1,1.5 -0.4,0.4 -1,0.7 -1.6,1 -0.5,0.1 -1.1,0.2 -1.7,0.3 z"
   id="path18"
   inkscape:connector-curvature="0"
   style="fill:#ff2932" />
		<path
   class="st0"
   d="m 77.8,23.7 4.1,-5.8 -4.4,0.4 -0.3,-3.4 9.8,-0.9 0.3,3 -4.4,6.2 5,-0.4 0.3,3.5 -10.2,0.9 z"
   id="path20"
   inkscape:connector-curvature="0"
   style="fill:#ff2932" />
		<path
   class="st0"
   d="m 88.8,19.9 c -0.1,-1 0,-1.9 0.3,-2.7 0.3,-0.8 0.7,-1.5 1.3,-2.2 0.6,-0.6 1.2,-1.1 2.1,-1.5 0.8,-0.4 1.7,-0.6 2.7,-0.7 1,-0.1 1.9,0 2.8,0.2 0.9,0.2 1.6,0.6 2.3,1.1 0.7,0.5 1.2,1.1 1.6,1.9 0.4,0.8 0.7,1.6 0.8,2.6 0.1,1 0,1.9 -0.3,2.7 -0.3,0.8 -0.7,1.6 -1.3,2.2 -0.6,0.6 -1.3,1.1 -2.1,1.5 -0.8,0.4 -1.7,0.6 -2.7,0.7 -1,0.1 -1.9,0 -2.8,-0.2 -0.9,-0.2 -1.6,-0.6 -2.3,-1.1 -0.7,-0.5 -1.2,-1.2 -1.6,-2 -0.5,-0.6 -0.7,-1.5 -0.8,-2.5 z m 4.4,-0.3 c 0,0.4 0.1,0.8 0.3,1.1 0.2,0.3 0.3,0.6 0.6,0.8 0.2,0.2 0.5,0.4 0.8,0.5 0.3,0.1 0.6,0.1 1,0.1 0.3,0 0.7,-0.1 0.9,-0.3 0.3,-0.2 0.5,-0.4 0.7,-0.6 0.2,-0.3 0.3,-0.6 0.4,-0.9 C 98,20 98,19.6 98,19.2 c 0,-0.4 -0.1,-0.8 -0.3,-1.1 -0.1,-0.3 -0.3,-0.6 -0.6,-0.8 -0.2,-0.2 -0.5,-0.4 -0.8,-0.5 -0.3,-0.1 -0.6,-0.1 -1,-0.1 -0.3,0 -0.7,0.1 -1,0.3 -0.3,0.2 -0.5,0.4 -0.7,0.6 -0.2,0.2 -0.3,0.5 -0.4,0.9 0,0.3 -0.1,0.7 0,1.1 z"
   id="path22"
   inkscape:connector-curvature="0"
   style="fill:#ff2932" />
	</g>
</g>
</svg>