<svg viewBox="0 0 175 35" version="1.1" xmlns="http://www.w3.org/2000/svg" xmlns:xlink="http://www.w3.org/1999/xlink" width="280" height="150">
    <title>1AEDEA79-C8DF-4E61-A032-D792EBF12358</title>
    <defs>
        <polygon id="path-1" points="0 35 174.93 35 174.93 0 0 0"/>
    </defs>
    <g id="Desktop" stroke="none" stroke-width="1" fill="none" fill-rule="evenodd">
        <g id="mandiner_elofizetes_01" transform="translate(-405.000000, -23.000000)">
            <g id="Group-8" transform="translate(405.000000, 23.000000)">
                <path d="M38.90474,25.42764 L38.90474,16.41934 C38.90474,15.31194 38.82704,14.42014 38.67234,13.74394 C38.51694,13.06844 38.27334,12.53084 37.94154,12.13184 C37.20934,11.24564 35.95774,10.80254 34.18464,10.80254 C32.89944,10.80254 31.79764,11.01884 30.87784,11.45074 C29.95804,11.88264 29.22094,12.63024 28.66724,13.69424 C28.51184,13.05164 28.26824,12.53084 27.93644,12.13184 C27.20494,11.24564 25.95264,10.80254 24.18024,10.80254 C21.80864,10.80254 20.15874,11.63344 19.22774,13.29524 L19.22774,10.90264 C17.67654,11.21274 15.74874,11.36744 13.44434,11.36744 C12.77934,11.36744 12.09264,11.33454 11.38354,11.26734 L11.38354,11.96594 C12.07024,11.96594 12.55254,12.19834 12.82974,12.66384 C13.10624,13.12934 13.24484,13.87204 13.24484,14.89054 L13.24484,25.42764 C13.24484,26.33624 13.10624,26.96134 12.82974,27.30574 C12.55254,27.64944 12.07024,27.82024 11.38354,27.82024 L11.38354,28.51814 C13.95394,28.42994 15.61574,28.38584 16.36964,28.38584 C17.03394,28.38584 18.38564,28.42994 20.42474,28.51814 L20.42474,27.82024 C19.98094,27.82024 19.67084,27.65504 19.49374,27.32184 C19.31664,26.98934 19.22774,26.35794 19.22774,25.42764 L19.22774,14.92414 C19.22774,14.23744 19.46574,13.66694 19.94244,13.21194 C20.41844,12.75834 20.97774,12.53084 21.62104,12.53084 C22.08654,12.53084 22.41904,12.70234 22.61784,13.04604 C22.81734,13.38974 22.91744,13.91614 22.91744,14.62454 L22.91744,25.42764 C22.91744,26.33624 22.82854,26.96134 22.65144,27.30574 C22.47364,27.64944 22.16354,27.82024 21.72044,27.82024 L21.72044,28.51814 C23.93594,28.42994 25.39894,28.38584 26.10804,28.38584 C26.77304,28.38584 28.21294,28.42994 30.42914,28.51814 L30.42914,27.82024 C29.85234,27.82024 29.45404,27.65504 29.23284,27.32184 C29.01094,26.98934 28.90034,26.35794 28.90034,25.42764 L28.90034,16.41934 C28.90034,15.99934 28.87794,15.52264 28.83384,14.99064 C28.94444,14.32564 29.23774,13.74954 29.71444,13.26234 C30.19044,12.77514 30.71684,12.53084 31.29294,12.53084 C31.86974,12.53084 32.28484,12.70234 32.53964,13.04604 C32.79444,13.38974 32.92184,13.91614 32.92184,14.62454 L32.92184,25.42764 C32.92184,26.35794 32.83294,26.98934 32.65584,27.32184 C32.47874,27.65504 32.16864,27.82024 31.72554,27.82024 L31.72554,28.51814 C33.94104,28.42994 35.40334,28.38584 36.11244,28.38584 C36.82154,28.38584 38.37274,28.42994 40.76604,28.51814 L40.76604,27.82024 C40.07864,27.82024 39.59704,27.64944 39.31984,27.30574 C39.04334,26.96134 38.90474,26.33624 38.90474,25.42764" id="Fill-1" fill="#B08520"/>
                <path d="M161.08687,10.80254 C159.07017,10.80254 157.64077,11.63344 156.79867,13.29524 L156.79867,10.90264 C155.24747,11.21274 153.31967,11.36744 151.01527,11.36744 C150.35097,11.36744 149.66427,11.33454 148.95517,11.26804 L148.95517,11.96594 C149.64117,11.96594 150.12347,12.19834 150.40067,12.66384 C150.67717,13.12934 150.81577,13.87204 150.81577,14.89054 L150.81577,25.42764 C150.81577,26.33624 150.67717,26.96134 150.40067,27.30574 C150.12347,27.64944 149.64117,27.82024 148.95517,27.82024 L148.95517,28.51814 C149.24217,28.51814 149.47527,28.50764 149.65237,28.48524 C152.04637,28.41944 153.58567,28.38584 154.27307,28.38584 C155.04797,28.38584 156.59987,28.41944 158.92597,28.48524 C159.12547,28.50764 159.36907,28.51814 159.65747,28.51814 L159.65747,27.82024 C158.61587,27.82024 157.87947,27.62704 157.44757,27.23854 C157.01497,26.85144 156.79867,26.13674 156.79867,25.09444 L156.79867,15.12364 C156.79867,14.48104 156.98767,13.88884 157.36427,13.34564 C157.74087,12.80244 158.20567,12.40904 158.76007,12.16544 C159.07017,12.01074 159.42437,11.93234 159.82337,11.93234 C158.69357,12.68624 158.12797,13.71664 158.12797,15.02424 C158.12797,15.75504 158.38277,16.33674 158.89307,16.76864 C159.40267,17.20054 160.13417,17.41684 161.08687,17.41684 C161.99477,17.41684 162.73257,17.12354 163.29677,16.53624 C163.86237,15.94964 164.14447,15.15654 164.14447,14.15974 C164.14447,13.25184 163.90577,12.46434 163.43047,11.79934 C162.95377,11.13504 162.17187,10.80254 161.08687,10.80254 L161.08687,10.80254 Z M140.87857,11.56694 C141.45397,11.56694 141.88097,12.13184 142.15817,13.26234 C142.43467,14.39214 142.56207,15.84394 142.54037,17.61634 L138.68477,17.61634 C138.90597,13.58364 139.63677,11.56694 140.87857,11.56694 L140.87857,11.56694 Z M142.60687,25.36044 C141.54287,25.36044 140.63987,24.90684 139.89787,23.99824 C139.15517,23.08964 138.78487,21.57134 138.78487,19.44474 C138.78487,18.91274 138.79467,18.51374 138.81777,18.24774 L147.39347,18.24774 C147.39347,13.28404 145.29907,10.80254 141.11097,10.80254 C138.53987,10.80254 136.47417,11.56134 134.91177,13.07964 C133.35007,14.59724 132.56887,16.87434 132.56887,19.90954 C132.56887,23.07914 133.26677,25.38354 134.66257,26.82274 C136.05907,28.26404 137.91967,28.98364 140.24717,28.98364 C142.06297,28.98364 143.55397,28.42994 144.71737,27.32184 C145.88077,26.21374 146.70607,24.88514 147.19327,23.33324 L146.62907,23.13374 C145.56507,24.61914 144.22387,25.36044 142.60687,25.36044 L142.60687,25.36044 Z M124.59167,10.80254 C122.06537,10.80254 120.30347,11.63344 119.30597,13.29524 L119.30597,10.90264 C117.75547,11.21274 115.82767,11.36744 113.52327,11.36744 C112.85897,11.36744 112.17087,11.33454 111.46177,11.26804 L111.46177,11.96594 C112.14917,11.96594 112.63077,12.19834 112.90867,12.66384 C113.18517,13.12934 113.32447,13.87204 113.32447,14.89054 L113.32447,25.42764 C113.32447,26.33624 113.18517,26.96134 112.90867,27.30574 C112.63077,27.64944 112.14917,27.82024 111.46177,27.82024 L111.46177,28.51814 C114.03217,28.42994 115.69397,28.38584 116.44787,28.38584 C117.15697,28.38584 118.61997,28.42994 120.83547,28.51814 L120.83547,27.82024 C120.25937,27.82024 119.86037,27.64944 119.63917,27.30574 C119.41727,26.96134 119.30597,26.33624 119.30597,25.42764 L119.30597,14.92414 C119.30597,14.23744 119.54467,13.66694 120.02137,13.21194 C120.49807,12.75834 121.05667,12.53084 121.69927,12.53084 C122.27607,12.53084 122.69117,12.70234 122.94667,13.04604 C123.20077,13.38974 123.32887,13.91614 123.32887,14.62454 L123.32887,25.42764 C123.32887,26.33624 123.21687,26.96134 122.99637,27.30574 C122.77447,27.64944 122.37547,27.82024 121.79937,27.82024 L121.79937,28.51814 C124.19267,28.42994 125.76557,28.38584 126.51947,28.38584 C127.22857,28.38584 128.77977,28.42994 131.17307,28.51814 L131.17307,27.82024 C130.48567,27.82024 130.00407,27.64944 129.72687,27.30574 C129.44967,26.96134 129.31107,26.33624 129.31107,25.42764 L129.31107,16.41934 C129.31107,15.31194 129.23337,14.42014 129.07797,13.74394 C128.92397,13.06844 128.67967,12.53084 128.34717,12.13184 C127.61637,11.24564 126.36407,10.80254 124.59167,10.80254 L124.59167,10.80254 Z M108.33907,10.90264 C106.78717,11.21274 104.85937,11.36744 102.55497,11.36744 C101.89067,11.36744 101.20327,11.33454 100.49417,11.26804 L100.49417,11.96594 C101.18087,11.96594 101.66247,12.19834 101.94037,12.66384 C102.21687,13.12934 102.35547,13.87204 102.35547,14.89054 L102.35547,25.42764 C102.35547,26.33624 102.21687,26.96134 101.94037,27.30574 C101.66247,27.64944 101.18087,27.82024 100.49417,27.82024 L100.49417,28.51814 C103.06387,28.42994 104.72637,28.38584 105.48027,28.38584 C106.23347,28.38584 107.80707,28.42994 110.19967,28.51814 L110.19967,27.82024 C109.51227,27.82024 109.03067,27.64944 108.75417,27.30574 C108.47697,26.96134 108.33907,26.33624 108.33907,25.42764 L108.33907,10.90264 Z M105.14777,2.52644 C103.97247,2.52644 103.07577,2.77004 102.45487,3.25724 C101.83467,3.74514 101.52457,4.45424 101.52457,5.38454 C101.52457,6.31554 101.83467,7.02534 102.45487,7.51184 C103.07577,7.99974 103.97247,8.24334 105.14777,8.24334 C106.29927,8.24334 107.19177,7.99974 107.82317,7.51184 C108.45527,7.02534 108.77027,6.31554 108.77027,5.38454 C108.77027,4.45424 108.45527,3.74514 107.82317,3.25724 C107.19177,2.77004 106.29927,2.52644 105.14777,2.52644 L105.14777,2.52644 Z M89.02747,27.25534 C88.34007,27.25534 87.79757,26.70724 87.39857,25.61034 C86.99957,24.51274 86.80007,22.60244 86.80007,19.87594 C86.80007,17.19564 87.04927,15.19574 87.54767,13.87694 C88.04677,12.55884 88.81607,11.89944 89.85767,11.89944 C90.41137,11.89944 90.93287,12.04364 91.42077,12.33204 L91.42077,24.86204 C91.42077,25.54944 91.18207,26.11994 90.70537,26.57424 C90.22867,27.02854 89.67007,27.25534 89.02747,27.25534 L89.02747,27.25534 Z M97.40297,24.86204 L97.40297,2.52644 C95.85247,2.83654 93.92467,2.99124 91.62027,2.99124 C90.93287,2.99124 90.24547,2.95834 89.55877,2.89184 L89.55877,3.58974 C90.24547,3.58974 90.72707,3.82284 91.00497,4.28764 C91.28147,4.75314 91.42077,5.49584 91.42077,6.51504 L91.42077,11.63344 C90.53387,11.07974 89.38097,10.80254 87.96347,10.80254 C85.68077,10.80254 83.88037,11.56134 82.56227,13.07964 C81.24347,14.59724 80.58477,16.83024 80.58477,19.77654 C80.58477,22.87894 81.20497,25.18894 82.44607,26.70724 C83.68647,28.22484 85.32657,28.98364 87.36567,28.98364 C88.34007,28.98364 89.14367,28.78414 89.77507,28.38584 C90.40647,27.98614 90.95527,27.35544 91.42077,26.49164 L91.42077,28.85134 C92.97057,28.53984 94.89907,28.38584 97.20347,28.38584 C97.89087,28.38584 98.57757,28.41944 99.26497,28.48524 L99.26497,27.78734 C98.57757,27.78734 98.09527,27.55424 97.81877,27.08944 C97.54157,26.62394 97.40297,25.88194 97.40297,24.86204 L97.40297,24.86204 Z M72.60757,10.80254 C70.08197,10.80254 68.32007,11.63344 67.32257,13.29524 L67.32257,10.90264 C65.77137,11.21274 63.84357,11.36744 61.53917,11.36744 C60.87487,11.36744 60.18747,11.33454 59.47837,11.26804 L59.47837,11.96594 C60.16507,11.96594 60.64737,12.19834 60.92457,12.66384 C61.20107,13.12934 61.33967,13.87204 61.33967,14.89054 L61.33967,25.42764 C61.33967,26.33624 61.20107,26.96134 60.92457,27.30574 C60.64737,27.64944 60.16507,27.82024 59.47837,27.82024 L59.47837,28.51814 C62.04877,28.42994 63.71057,28.38584 64.46377,28.38584 C65.17287,28.38584 66.63587,28.42994 68.85137,28.51814 L68.85137,27.82024 C68.27527,27.82024 67.87627,27.64944 67.65507,27.30574 C67.43317,26.96134 67.32257,26.33624 67.32257,25.42764 L67.32257,14.92414 C67.32257,14.23744 67.56057,13.66694 68.03727,13.21194 C68.51327,12.75834 69.07327,12.53084 69.71587,12.53084 C70.29197,12.53084 70.70707,12.70234 70.96257,13.04604 C71.21667,13.38974 71.34407,13.91614 71.34407,14.62454 L71.34407,25.42764 C71.34407,26.33624 71.23347,26.96134 71.01227,27.30574 C70.79037,27.64944 70.39137,27.82024 69.81597,27.82024 L69.81597,28.51814 C72.20857,28.42994 73.78217,28.38584 74.53537,28.38584 C75.24447,28.38584 76.79567,28.42994 79.18827,28.51814 L79.18827,27.82024 C78.50157,27.82024 78.01997,27.64944 77.74277,27.30574 C77.46557,26.96134 77.32767,26.33624 77.32767,25.42764 L77.32767,16.41934 C77.32767,15.31194 77.24927,14.42014 77.09457,13.74394 C76.93987,13.06844 76.69557,12.53084 76.36377,12.13184 C75.63227,11.24564 74.37997,10.80254 72.60757,10.80254 L72.60757,10.80254 Z M49.47397,26.09194 C48.34417,26.09194 47.77857,25.29464 47.77857,23.69864 C47.77857,22.76764 47.93397,22.03194 48.24407,21.48874 C48.55417,20.94624 49.00917,20.38694 49.60697,19.81014 C50.13827,19.27814 50.50437,18.84624 50.70387,18.51374 L50.70387,25.52704 C50.34897,25.90434 49.93947,26.09194 49.47397,26.09194 L49.47397,26.09194 Z M46.15037,28.75124 C48.21117,28.75124 49.76167,27.90914 50.80397,26.22564 C50.84807,27.00124 51.13577,27.61584 51.66777,28.06944 C52.19977,28.52374 53.13007,28.75124 54.45937,28.75124 C56.23247,28.75124 57.59467,28.34104 58.54807,27.52134 L58.21627,26.95644 C58.06017,27.08944 57.89497,27.20564 57.71717,27.30574 C57.53937,27.40444 57.37347,27.45484 57.21877,27.45484 C57.01927,27.45484 56.88067,27.35544 56.80297,27.15594 C56.72527,26.95644 56.68677,26.57984 56.68677,26.02544 L56.68677,17.11794 C56.68677,15.87754 56.61467,14.90734 56.47047,14.20944 C56.32627,13.51154 56.03297,12.92984 55.58987,12.46434 C54.96897,11.82244 54.21577,11.38424 53.33027,11.15184 C52.44267,10.91944 51.39057,10.80254 50.17187,10.80254 C47.86747,10.80254 46.09507,11.15744 44.85397,11.86654 C44.14487,12.26484 43.62407,12.70864 43.29227,13.19514 C42.95977,13.68374 42.79317,14.25914 42.79317,14.92414 C42.79317,15.76624 43.04237,16.45924 43.54147,17.00104 C44.03987,17.54494 44.72097,17.81584 45.58547,17.81584 C46.44927,17.81584 47.18637,17.55544 47.79537,17.03464 C48.40437,16.51454 48.70957,15.82084 48.70957,14.95774 C48.70957,14.31514 48.52687,13.73344 48.16147,13.21194 C47.79537,12.69184 47.23537,12.29844 46.48287,12.03244 C47.03657,11.65584 47.65677,11.46754 48.34417,11.46754 C49.20797,11.46754 49.81697,11.74474 50.17187,12.29844 C50.52607,12.85214 50.70387,13.48424 50.70387,14.19264 L50.70387,17.15084 C50.70387,17.74934 50.42667,18.21414 49.87297,18.54734 C49.31927,18.87984 48.44427,19.24454 47.24727,19.64354 C46.11677,20.02084 45.19697,20.38694 44.48857,20.74114 C43.77877,21.09604 43.16417,21.59934 42.64337,22.25314 C42.12257,22.90694 41.86287,23.73224 41.86287,24.72904 C41.86287,25.88194 42.22267,26.84024 42.94297,27.60394 C43.66257,28.36904 44.73217,28.75124 46.15037,28.75124 L46.15037,28.75124 Z" id="Fill-3" fill="#1D1D1B"/>
                <mask id="mask-2" fill="white">
                    <use xlink:href="#path-1"/>
                </mask>
                <g id="Clip-6"/>
                <polygon id="Fill-5" fill="#1D1D1B" mask="url(#mask-2)" points="0 35 1.9943 35 1.9943 0 0 0"/>
                <polygon id="Fill-7" fill="#1D1D1B" mask="url(#mask-2)" points="172.935 35 174.9293 35 174.9293 0 172.935 0"/>
            </g>
        </g>
    </g>
</svg>