<svg class="container-fluid p-0" version="1.1" id="nyugat-logo" xmlns="http://www.w3.org/2000/svg" xmlns:xlink="http://www.w3.org/1999/xlink" x="0px" y="0px" viewBox="0 0 202 40" style="enable-background:new 0 0 202 40;" xml:space="preserve">
<style type="text/css">
	.st00{fill:#FFFFFF;}
	.st11{fill:#00A1D6;}
</style>
<g>
	<g>
		<path class="st00" d="M61.4,31.9h-3.2V9.6h3.2v2.3c1.9-1.5,3.6-2.9,6.1-2.9c3.2,0,5.7,1.7,5.7,7.6v15.4h-3.2V17.3
			c0-2.3,0.4-5.8-2.9-5.8c-1.9,0-4.5,1.9-5.7,3.4V31.9z"></path>
	</g>
	<g>
		<path class="st00" d="M84.4,32.7c-1.2,3.8-3.2,6.8-7.6,6.8c-0.9,0-1.6-0.2-2.4-0.4l0.5-2.7c0.6,0.2,1.2,0.3,1.8,0.3
			c3.2,0,4.2-2.7,5-5.3L74,9.6h3.2L83.3,27l5.5-17.4h3L84.4,32.7z"></path>
	</g>
	<g>
		<path class="st00" d="M104.3,9.6h3.1v22.3h-3.1v-2.3c-1.9,1.5-3.6,2.9-6.1,2.9c-3.2,0-5.7-1.7-5.7-7.6V9.6h3.1v14.6
			c0,2.3,0.4,5.8,2.9,5.8c1.9,0,4.5-1.9,5.7-3.4L104.3,9.6L104.3,9.6z"></path>
	</g>
	<g>
		<path class="st00" d="M128.5,11.6h-1.2c-0.9,0-1.5,0-2.3,0.5c0.9,1.4,1.4,2.9,1.4,4.6c0,4.3-3.2,7.7-7.5,7.7
			c-1.3,0-2.4-0.2-3.6-0.7c-0.7,0.6-1.9,1.3-1.9,2.4c0,2.8,14.9-0.7,14.9,7.7c0,1.7-0.5,5.8-9.5,5.8c-7.3,0-9.5-2.8-9.5-5.6
			c0-2.3,2-3.6,3.9-4.4c-1.3-0.5-2.8-1.5-2.8-3.1c0-2,1.5-2.6,2.8-4.1c-1.6-1.9-2.5-3.2-2.5-5.9c0-4.5,3.4-7.7,7.9-7.7
			c1.8,0,3.4,0.5,4.8,1.6c1.5-1.1,3.1-1.9,5-1.7L128.5,11.6L128.5,11.6z M116.6,30.5c-1.7,0.3-4.2,1.3-4.2,3.4
			c0,3.1,4.5,3.2,6.7,3.2c2.3,0,6.3-0.4,6.3-3.5c0-2.3-3.7-2.6-5.4-2.7L116.6,30.5z M118.7,11.3c-3,0-4.9,2.5-4.9,5.4
			c0,2.8,1.7,5.3,4.6,5.3c3.2,0,5-2.2,5-5.3C123.4,13.8,121.9,11.3,118.7,11.3z"></path>
	</g>
	<g>
		<path class="st00" d="M143.1,31.9l-0.3-2.8c-1.8,1.8-3.8,3.5-6.5,3.5c-3.4,0-6.2-2.9-6.2-6.4c0-6.4,6.7-7.8,11.6-9.1l1-0.3v-1.3
			c0-2.5-1.7-3.9-4.2-3.9c-2.5,0-4.2,1.6-5.5,3.5l-2.2-1.7c1.9-2.7,4.3-4.5,7.7-4.5c3,0,7.4,1.9,7.4,6.9v11.1c0,1.7,0,3.4,0.6,4.9
			L143.1,31.9L143.1,31.9z M141.5,19.7c-3,0.9-8.4,2.1-8.4,6.1c0,1.9,1.5,3.7,3.4,3.7c2.5,0,4.8-1.7,6.3-3.6v-6.5L141.5,19.7z"></path>
	</g>
	<g>
		<path class="st00" d="M153.3,9.6h5v2.7h-5v14c0,2.2,0,3.6,2.5,3.6c0.9,0,1.7-0.1,2.5-0.3v2.3c-1,0.4-2.1,0.6-3.1,0.6
			c-5.3,0-5-3.6-5-7.7V12.2h-3.4V9.6h3.4V2.3h3.1V9.6z"></path>
	</g>
	<g>
		<path class="st11" d="M164.4,31.9h-4.1v-4.7h4.1V31.9z"></path>
	</g>
	<g>
		<path class="st11" d="M171.8,11.9c1.9-1.5,3.6-2.9,6.1-2.9c3.2,0,5.7,1.7,5.7,7.6v15.4h-3.1V17.3c0-2.3,0.4-5.8-2.9-5.8
			c-1.9,0-4.5,1.9-5.7,3.4v17h-3.2V0.4h3.2L171.8,11.9L171.8,11.9z"></path>
	</g>
	<g>
		<path class="st11" d="M198.3,9.6h3.2v22.3h-3.2v-2.3c-1.9,1.5-3.6,2.9-6.1,2.9c-3.1,0-5.7-1.7-5.7-7.6V9.6h3.1v14.6
			c0,2.3,0.4,5.8,2.9,5.8c1.9,0,4.5-1.9,5.7-3.4L198.3,9.6L198.3,9.6z"></path>
	</g>
	<path class="st11" d="M26.7,9.5l-7,5.1l2.7,8.4l-7.2-5.2L8.1,23l2.7-8.4l-7-5.1H0.6v23h53.1v-23H26.7z M28.8,22.5l-4.5,3.3l1.7-5.3
		l-4.5-3.3h5.6l1.7-5.3l1.7,5.3h5.6l-4.5,3.3l1.7,5.3L28.8,22.5z M40.7,27.7l-2.7-2l-2.7,2l1-3.2l-2.7-2h3.4l1-3.2l1,3.2h3.4l-2.7,2
		L40.7,27.7z"></path>
</g>
</svg>