<svg viewBox="0 0 133 28" version="1.1" xmlns="http://www.w3.org/2000/svg" xmlns:xlink="http://www.w3.org/1999/xlink" width="280px" height="150px">
    <!-- Generator: sketchtool 50.2 (55047) - http://www.bohemiancoding.com/sketch -->
    <title>F905B41E-1584-4E1B-8B94-032336C08CD2</title>
    <desc>Created with sketchtool.</desc>
    <defs/>
    <g id="Origo-Reszponziv-Top-A-Template" stroke="none" stroke-width="1" fill-rule="evenodd" fill="#ffffff">
        <g id="origo-reszponziv-top-A-1KHM-xl" transform="translate(-654.000000, -55.000000)" fill="#ffffff">
            <g id="Origo-Fejlec-XL" transform="translate(0.000000, 36.000000)">
                <g id="origo" transform="translate(654.000000, 19.000000)">
                    <g id="Group-10">
                        <path d="M14.7780452,21.1127164 C19.0424567,21.1127164 22.0277917,17.9150251 22.0277917,13.4382572 C22.0277917,9.1738457 19.2548131,5.76379805 14.7780452,5.76379805 C10.3012774,5.76379805 7.52829871,9.1738457 7.52829871,13.4382572 C7.52829871,17.7026687 10.3012774,21.1127164 14.7780452,21.1127164 Z M14.7780452,27.2957427 C6.67640411,27.2957427 0.493377808,21.5398983 0.493377808,13.6530828 C0.493377808,5.76379805 6.67640411,0.0079536709 14.7780452,0.0079536709 C23.0920426,0.0079536709 29.0627126,5.54897245 29.0627126,13.6530828 C29.0627126,21.5398983 22.8796863,27.2957427 14.7780452,27.2957427 Z" id="Fill-2"/>
                        <path d="M45.0516631,11.9470713 L39.7230006,11.9470713 L39.7230006,6.1912269 L45.0516631,6.1912269 C46.9702779,6.1912269 48.4617107,7.2579471 48.4617107,8.96173629 C48.4617107,10.8803511 46.9702779,11.9470713 45.0516631,11.9470713 Z M55.4966316,26.8688077 L50.1679692,17.0609081 C52.7261222,16.2114828 55.4966316,13.6508605 55.4966316,9.17409263 C55.4966316,4.27261211 52.086584,0.432913266 46.3307396,0.432913266 L32.9004361,0.432913266 L32.9004361,27.0836333 L39.7230006,27.0836333 L39.7230006,18.1300976 L43.1330483,18.1300976 L47.6098161,27.0836333 L55.4966316,27.0836333 L55.4966316,26.8688077 Z" id="Fill-4"/>
                        <polygon id="Fill-6" points="60.81805 26.8680669 67.6406146 26.8680669 67.6406146 0.219816154 60.81805 0.219816154"/>
                        <path d="M99.2042569,22.1791897 L99.2042569,11.7317518 L86.4059335,11.7288864 L86.4059335,17.7024218 L92.3816924,17.7024218 L92.3816924,19.8358622 C91.5273285,20.6852875 89.3963574,21.3272951 87.4777426,21.3272951 C83.2133311,21.3272951 80.0156397,17.9147781 80.0156397,13.6528359 C80.0156397,9.17359878 83.0009747,5.97590746 87.4777426,5.97590746 C90.0358956,5.97590746 92.1668668,7.68216591 93.0212306,9.38842437 L98.777075,6.40308939 C96.8584602,3.20539807 93.4459433,0.00770674493 87.4777426,0.00770674493 C79.5884578,0.00770674493 72.9807188,5.33636919 72.9807188,13.6528359 C73.1930752,21.9668333 79.5884578,27.2954958 87.4777426,27.2954958 C92.5940487,27.2954958 96.4312783,25.1645246 99.2042569,22.1791897 Z" id="Fill-8"/>
                        <path d="M117.750126,21.1127164 C113.273358,21.1127164 110.500379,17.7026687 110.500379,13.4382572 C110.500379,9.1738457 113.273358,5.76379805 117.750126,5.76379805 C122.226894,5.76379805 124.999872,9.1738457 124.999872,13.4382572 C124.999872,17.9150251 122.226894,21.1127164 117.750126,21.1127164 M117.750126,27.2957427 C125.851767,27.2957427 132.034793,21.5398983 132.034793,13.6530828 C132.034793,5.54897245 126.064123,0.0079536709 117.750126,0.0079536709 C109.648485,0.0079536709 103.465458,5.76379805 103.465458,13.6530828 C103.465458,21.5398983 109.648485,27.2957427 117.750126,27.2957427" id="Fill-9"/>
                    </g>
                </g>
            </g>
        </g>
    </g>
</svg>
