<svg id="Réteg_1" data-name="Réteg 1" xmlns="http://www.w3.org/2000/svg" viewBox="0 0 426.69 81.21"><defs><style>.cls-1{isolation:isolate;}.cls-2{fill:#1d1d1b;}</style></defs><title>vg-logo</title><g class="cls-1"><path class="cls-2" d="M40.22,0,30.88,69.32H9.36L0,0H14.83l5.28,48.44L25.34,0Z"/><path class="cls-2" d="M55.64,10.1H41.86V0H55.64Zm0,59.22H41.86V13.2H55.64Z"/><path class="cls-2" d="M72.41,69.32H58.64V0H72.41Z"/><path class="cls-2" d="M108,69.32H95.86V67.14q-1.55,3-8.85,2.95-11.26,0-11.26-8.8V50a9.12,9.12,0,0,1,2.73-6.57q2.73-2.8,11-7,4.79-2.42,4.79-3.87V24.27q0-2.76-2.37-2.76-2.71,0-2.71,6.72,0,1.21.15,3.58t.19,3.58H76.23V24.17q0-11.36,16.44-11.36Q108,12.81,108,24.65ZM100.93,0,95.18,8.94H87.59L90.54,0ZM94.26,58.83V44.38q-4.74,1.16-4.74,4.25v10.2q0,2.56,2.47,2.56Q94.26,61.39,94.26,58.83Z"/><path class="cls-2" d="M113.65,81.21V73.09h11.2q4.89,0,4.89-5.08-2.71,2.08-8.53,2.08a11.73,11.73,0,0,1-7.05-2.15,6.64,6.64,0,0,1-3-5.63V22q0-9.18,11-9.19,2.91,0,7.66,2.47l1.79-2.08h11.89V68.55a17.39,17.39,0,0,1-2.16,9.06q-2.16,3.6-13.41,3.6Zm16.09-21.9V24.07q0-2.56-2.37-2.56T125,24.07V59.22q0,2.56,2.42,2.56T129.74,59.31Z"/><path class="cls-2" d="M148.89,81.21V73.09h11.2Q165,73.09,165,68q-2.71,2.08-8.53,2.08a11.73,11.73,0,0,1-7.05-2.15,6.64,6.64,0,0,1-3-5.63V22q0-9.18,11-9.19,2.91,0,7.66,2.47l1.79-2.08h11.89V68.55a17.39,17.39,0,0,1-2.16,9.06q-2.16,3.6-13.41,3.6ZM165,59.31V24.07q0-2.56-2.37-2.56t-2.42,2.56V59.22q0,2.56,2.42,2.56T165,59.31Z"/><path class="cls-2" d="M214.24,69.32H202.06V67.14q-1.55,3-8.85,2.95-11.26,0-11.26-8.8V50a9.12,9.12,0,0,1,2.73-6.57q2.73-2.8,11-7,4.79-2.42,4.79-3.87V24.27q0-2.76-2.37-2.76-2.71,0-2.71,6.72,0,1.21.15,3.58t.19,3.58H182.43V24.17q0-11.36,16.44-11.36,15.37,0,15.37,11.84ZM200.47,58.83V44.38q-4.74,1.16-4.74,4.25v10.2q0,2.56,2.47,2.56Q200.46,61.39,200.47,58.83Z"/><path class="cls-2" d="M250.3,69.32H217.24V61.58l15.62-39.4H218.11v-9h30.7v7.59L232.94,60.42H250.3Z"/><path class="cls-2" d="M285,69.32H274.53l-1.16-1.88a13,13,0,0,1-8,2.66,15.88,15.88,0,0,1-9-2.46,7.68,7.68,0,0,1-3.71-6.72V20.59a6.63,6.63,0,0,1,2.93-5.68,11.86,11.86,0,0,1,7.1-2.1q5.72,0,8.53,2.08V0H285ZM271.19,58.83V24q0-2.47-2.37-2.47t-2.42,2.56V58.83q0,2.56,2.42,2.56T271.19,58.83Z"/><path class="cls-2" d="M320.44,69.32H308.26V67.14q-1.55,3-8.85,2.95-11.26,0-11.26-8.8V50a9.12,9.12,0,0,1,2.73-6.57q2.73-2.8,11-7,4.79-2.42,4.79-3.87V24.27q0-2.76-2.37-2.76-2.71,0-2.71,6.72,0,1.21.15,3.58t.19,3.58H288.64V24.17q0-11.36,16.44-11.36,15.37,0,15.37,11.84ZM306.67,58.83V44.38q-4.74,1.16-4.74,4.25v10.2q0,2.56,2.46,2.56Q306.67,61.39,306.67,58.83Z"/><path class="cls-2" d="M323.59,46.74h13.78V58.64q0,2.85,2.32,2.85T342,56q0-7.11-2.85-9.19-10.78-5.65-13-7.9t-2.22-6.74V24.65q0-11.84,16-11.84,15.61,0,15.61,11.36V35.24H342.15l.29-6.72q0-7-2.56-7t-2.56,4.4a16.16,16.16,0,0,0,1.14,6.86q1.14,2.32,12.64,8a10.66,10.66,0,0,1,4.79,9.09v8.41q0,11.84-16.31,11.84-16,0-16-11.36Z"/><path class="cls-2" d="M391.21,69.32H379V67.14q-1.55,3-8.85,2.95-11.26,0-11.26-8.8V50a9.12,9.12,0,0,1,2.73-6.57q2.73-2.8,11-7,4.79-2.42,4.79-3.87V24.27q0-2.76-2.37-2.76-2.71,0-2.71,6.72,0,1.21.15,3.58t.19,3.58H359.41V24.17q0-11.36,16.44-11.36,15.37,0,15.37,11.84ZM384.11,0l-5.75,8.94h-7.59L373.72,0Zm-6.67,58.83V44.38q-4.74,1.16-4.74,4.25v10.2q0,2.56,2.46,2.56Q377.44,61.39,377.44,58.83Z"/><path class="cls-2" d="M396.83,81.21V73.09H408q4.89,0,4.89-5.08-2.71,2.08-8.53,2.08a11.73,11.73,0,0,1-7.05-2.15,6.64,6.64,0,0,1-3-5.63V22q0-9.18,11-9.19,2.91,0,7.66,2.47l1.79-2.08h11.88V68.55a17.4,17.4,0,0,1-2.16,9.06q-2.16,3.6-13.41,3.6Zm16.09-21.9V24.07q0-2.56-2.37-2.56t-2.42,2.56V59.22q0,2.56,2.42,2.56T412.92,59.31Z"/></g></svg>