<svg xmlns="http://www.w3.org/2000/svg" xmlns:xlink="http://www.w3.org/1999/xlink" x="0px" y="0px" viewBox="0 0 40 40" enable-background="new 0 0 40 40" xml:space="preserve" width="100" height="100"><path fill="#141829" d="M30.09,21.771c0-0.853-0.642-1.494-1.493-1.494c-0.873,0-1.507,0.628-1.507,1.494 c0,0.873,0.634,1.507,1.507,1.507C29.462,23.278,30.09,22.644,30.09,21.771z"></path><path fill="#141829" d="M25.719,18.753l0.247-2.001c-0.785-0.205-1.66-0.314-2.536-0.314c-2.176,0-3.146,0.702-3.146,2.272 c0,1.293,0.983,1.976,2.924,2.029c0.182,0.006,0.235,0.007,0.256,0.092c0.037,0.146,0.016,0.277-0.056,0.371 c-0.058,0.073-0.144,0.116-0.237,0.116c-0.551,0-1.608-0.162-2.342-0.354l-0.248,2.002c0.787,0.205,1.663,0.314,2.534,0.314 c2.178,0,3.146-0.706,3.146-2.287c0-1.286-0.983-1.963-2.919-2.014c-0.182-0.006-0.219-0.006-0.252-0.07 c-0.081-0.173-0.047-0.292-0.002-0.36c0.058-0.092,0.167-0.149,0.287-0.149C23.924,18.398,24.981,18.559,25.719,18.753z"></path><polygon fill="#141829" points="5.37,29.436 5.37,5.297 24.209,5.297 25.655,0.392 0.372,0.392 0.372,34.436 15.649,34.436  17.117,29.436 "></polygon><polygon fill="#141829" points="34.628,10.507 34.628,34.647 15.806,34.647 14.342,39.648 39.626,39.648 39.626,5.519 24.364,5.519  22.898,10.507 "></polygon><polygon fill="#141829" points="12.192,16.574 14.067,23.14 18.116,23.14 19.989,16.574 16.84,16.574 16.093,21.045 15.343,16.574 "></polygon></svg>